<?xml version="1.0" standalone="no"?>
<!DOCTYPE svg PUBLIC "-//W3C//DTD SVG 20010904//EN"
 "http://www.w3.org/TR/2001/REC-SVG-20010904/DTD/svg10.dtd">
<svg version="1.0" xmlns="http://www.w3.org/2000/svg"
 width="400.000000pt" height="400.000000pt" viewBox="0 0 400.000000 400.000000"
 preserveAspectRatio="xMidYMid meet">
<metadata>
Created by potrace 1.14, written by Peter Selinger 2001-2017
</metadata>
<g transform="translate(0.000000,400.000000) scale(0.100000,-0.100000)"
fill="#000000" stroke="none">
<path d="M0 2000 l0 -2000 674 0 674 0 31 32 c34 35 40 32 15 -7 -16 -25 -16
-25 16 -25 30 0 60 19 60 38 0 13 45 52 61 52 10 0 11 2 2 8 -9 6 -3 13 17 26
17 9 28 21 25 25 -2 5 9 19 25 31 17 13 30 27 30 33 0 5 14 27 32 50 18 22 39
53 48 68 8 15 27 42 42 60 14 19 45 58 68 87 22 28 45 52 50 52 6 0 10 7 10
15 0 8 4 15 9 15 5 0 23 14 41 31 26 26 29 34 18 47 -11 13 -10 15 5 9 12 -5
17 -2 15 7 -6 29 139 184 199 213 21 9 43 13 60 8 27 -6 27 -6 8 9 -20 16 -19
16 15 45 25 21 42 28 58 24 21 -5 22 -3 17 23 -4 23 -3 25 4 9 9 -19 9 -19 19
5 l11 25 1 -30 c1 -17 4 -23 7 -15 3 8 12 23 21 33 8 9 13 20 9 23 -3 3 3 15
13 27 14 14 17 24 10 32 -12 14 13 40 29 31 5 -3 11 -2 13 3 4 11 48 25 48 14
0 -4 -16 -28 -35 -52 -22 -28 -33 -51 -30 -62 3 -9 1 -20 -5 -24 -5 -3 -10 1
-10 9 0 9 -5 16 -11 16 -6 0 -8 -11 -5 -27 7 -31 1 -43 -31 -60 -18 -10 -22
-10 -26 5 -4 15 -5 15 -6 -2 -1 -12 -6 -16 -16 -12 -9 3 -15 0 -15 -9 0 -18
26 -20 33 -2 3 7 6 5 6 -5 1 -10 -5 -18 -13 -18 -8 0 -16 -7 -20 -15 -4 -10
-14 -13 -36 -9 -37 8 -42 -13 -5 -22 28 -7 29 -8 14 -35 -6 -12 -17 -18 -25
-15 -8 3 -13 0 -11 -7 1 -7 -4 -11 -11 -9 -8 1 -11 -2 -8 -7 6 -10 -43 -63
-109 -119 -48 -41 -225 -205 -307 -284 -33 -32 -66 -58 -74 -58 -8 0 -12 4 -9
10 3 5 2 10 -4 10 -5 0 -13 -4 -16 -10 -3 -5 -1 -10 4 -10 6 0 11 -7 11 -16 0
-8 -4 -13 -10 -9 -10 6 -44 -51 -36 -63 2 -4 -13 -25 -35 -47 -21 -21 -39 -42
-39 -47 0 -4 -7 -8 -15 -8 -8 0 -15 -4 -15 -9 0 -4 -10 -19 -22 -32 -13 -14
-31 -37 -41 -52 l-17 -27 1245 0 1246 0 -2 115 c-1 63 -4 114 -8 114 -32 -4
-78 47 -69 77 1 5 -1 24 -5 41 -5 24 -15 36 -39 46 -20 9 -35 10 -39 4 -4 -5
-16 0 -28 12 -11 11 -28 21 -37 21 -14 0 -14 3 -3 16 9 11 10 17 2 22 -6 4
-14 21 -18 37 l-7 30 22 -32 c12 -18 23 -33 25 -33 5 0 -24 124 -39 165 -17
47 -9 56 41 45 19 -5 32 -6 29 -3 -2 3 7 15 21 27 14 12 27 33 28 47 1 13 3
27 4 32 2 11 18 8 33 -5 7 -7 22 -14 33 -14 11 -1 28 -5 38 -9 16 -7 17 5 17
159 l0 167 -24 -18 c-16 -12 -20 -20 -12 -25 8 -6 8 -8 -1 -8 -7 0 -13 -7 -13
-15 0 -8 -6 -15 -14 -15 -8 0 -18 -4 -21 -10 -4 -6 1 -7 12 -3 16 6 16 4 -2
-17 -51 -59 -75 -81 -75 -71 0 26 53 110 100 159 l50 52 0 71 c0 61 -2 70 -16
65 -9 -3 -20 -6 -25 -6 -6 0 -7 -5 -4 -10 3 -6 1 -10 -4 -10 -19 0 -12 22 9
27 11 3 20 10 20 15 0 5 4 7 8 4 4 -2 9 11 10 31 2 26 -3 39 -18 50 -26 18
-26 40 0 48 22 7 28 35 7 35 -6 0 -26 -4 -43 -9 -35 -10 -47 -5 -57 23 -6 16
-3 18 20 13 24 -4 25 -4 10 7 -15 12 -13 13 13 14 62 2 70 9 70 66 0 48 -2 53
-27 62 -25 9 -26 10 -9 27 20 20 19 20 -23 6 -17 -6 -31 -15 -31 -20 0 -5 -6
-9 -13 -9 -21 0 -47 55 -47 102 0 54 -17 118 -32 118 -13 0 -4 -110 12 -143
11 -21 10 -21 -9 2 -12 13 -21 32 -21 42 0 11 -7 22 -15 25 -8 4 -22 21 -30
38 -14 29 -14 36 -1 61 8 16 13 32 10 37 -3 4 7 13 23 19 36 13 69 44 99 91
28 44 30 52 9 44 -12 -4 -14 0 -9 19 3 14 7 36 8 49 0 13 4 22 9 19 4 -2 7 5
7 16 0 14 -6 21 -20 21 -18 0 -19 3 -10 20 7 14 7 20 0 20 -5 0 -10 -4 -10
-10 0 -5 -14 -16 -30 -25 -24 -12 -29 -21 -25 -38 8 -32 -9 -112 -23 -110 -8
2 -12 -15 -12 -51 0 -52 -1 -54 -30 -58 -17 -3 -32 -2 -35 0 -3 3 -5 48 -5
100 0 53 -2 93 -4 91 -7 -7 -28 -202 -28 -262 l0 -59 -21 20 c-24 22 -93 38
-199 48 -37 3 -70 10 -73 15 -4 5 1 9 9 9 9 0 16 7 16 15 0 9 -6 12 -15 9 -12
-5 -15 2 -14 27 0 19 3 28 6 21 15 -38 49 -59 105 -65 77 -8 115 7 116 45 1
29 0 29 -23 14 -13 -9 -36 -16 -50 -16 -34 0 -128 30 -137 44 -4 6 -8 7 -8 2
0 -6 -11 5 -25 24 -22 30 -25 32 -25 12 0 -13 7 -25 15 -28 8 -4 15 -10 15
-16 0 -5 -6 -6 -12 -2 -10 6 -10 4 0 -7 14 -16 16 -59 2 -59 -5 0 -11 10 -11
23 -1 16 -2 18 -6 5 -2 -10 -11 -18 -19 -18 -8 0 -14 -5 -14 -11 0 -6 7 -9 15
-5 8 3 22 3 30 0 17 -7 21 -34 5 -34 -5 0 -10 5 -10 11 0 6 -7 3 -16 -5 -8 -9
-23 -16 -32 -16 -23 0 -82 -23 -82 -32 0 -4 10 -8 23 -8 12 0 76 1 143 1 129
0 168 -9 248 -59 l40 -25 -23 -18 c-13 -11 -30 -19 -38 -19 -8 0 -24 -6 -36
-12 -12 -7 -53 -17 -92 -23 -65 -9 -70 -12 -70 -35 0 -14 3 -30 8 -37 5 -7 2
-24 -7 -41 -16 -30 -13 -42 11 -42 9 0 13 14 13 43 l0 44 43 -1 c23 0 55 3 70
7 19 5 27 4 22 -3 -3 -5 2 -10 14 -10 10 0 21 6 24 13 2 6 9 -22 15 -63 9 -63
10 -66 7 -18 -6 89 2 102 61 114 15 3 23 -4 32 -30 7 -18 23 -38 36 -44 18 -8
76 -90 76 -108 0 -10 -29 -2 -33 9 -2 6 -8 8 -13 4 -5 -4 -3 -11 3 -15 15 -9
34 -90 23 -97 -15 -9 -58 70 -86 158 -19 62 -32 87 -43 86 -11 0 -12 -2 -3 -6
6 -2 12 -21 12 -41 0 -20 11 -63 24 -95 18 -43 21 -57 10 -53 -51 21 -50 21
-34 1 14 -17 14 -18 -8 -6 -13 7 -20 17 -16 24 4 7 4 9 -1 5 -4 -4 -14 -3 -22
4 -7 6 -16 8 -20 4 -3 -3 -1 -6 5 -6 7 0 12 -4 12 -9 0 -16 131 -149 160 -161
35 -14 46 -39 22 -46 -26 -9 -82 -38 -83 -44 -5 -33 -4 -50 3 -50 10 0 10 -54
-1 -102 -7 -32 -5 -40 15 -59 27 -25 31 -61 9 -79 -8 -7 -12 -16 -9 -21 9 -15
-23 -21 -45 -9 -12 6 -21 18 -22 28 0 9 -8 -10 -16 -43 -12 -47 -13 -69 -5
-100 6 -24 7 -46 2 -55 -5 -8 -10 -10 -11 -5 -1 6 -5 -3 -9 -20 -7 -27 -8 -24
-9 18 -1 60 -28 109 -53 101 -16 -5 -18 2 -18 62 0 67 18 143 66 278 14 38 23
70 21 72 -13 13 -194 -99 -211 -130 -6 -11 -33 -51 -60 -90 -27 -38 -55 -84
-62 -102 -8 -18 -26 -45 -40 -61 l-27 -28 8 25 c4 14 18 42 31 62 13 21 24 40
24 42 0 16 -72 -28 -124 -76 -33 -31 -62 -55 -64 -53 -13 13 202 235 227 235
6 0 19 17 29 38 79 154 102 205 101 215 -1 7 3 25 9 40 7 16 12 32 12 36 0 4
14 23 30 41 22 25 30 43 30 72 0 24 -4 37 -10 33 -6 -3 -23 3 -39 14 -34 25
-45 16 -55 -42 -4 -21 -16 -47 -27 -58 -17 -17 -25 -19 -51 -10 -17 6 -32 11
-34 11 -2 0 -1 -15 2 -32 4 -25 3 -29 -5 -18 -9 13 -14 11 -35 -13 -15 -18
-32 -26 -47 -25 -19 2 -24 -1 -22 -17 1 -19 1 -19 -12 -2 -10 14 -15 15 -21 6
-5 -9 -10 -6 -15 8 -5 14 -20 23 -45 28 -32 6 -41 3 -56 -15 l-17 -21 -16 25
c-9 14 -14 34 -11 44 4 11 -2 29 -14 45 -12 15 -20 35 -19 44 1 10 -5 35 -14
57 -9 21 -17 52 -17 68 0 16 -4 27 -9 23 -10 -5 -5 60 5 76 3 5 16 9 29 9 13
0 26 4 29 9 4 5 -23 11 -59 13 -45 2 -65 -1 -65 -9 0 -6 5 -13 12 -15 7 -3 8
-10 4 -17 -7 -11 -10 -11 -17 0 -7 11 -13 9 -28 -10 -17 -23 -19 -23 -29 -5
-9 16 -12 12 -22 -26 -14 -52 -35 -80 -62 -80 -11 0 -17 -4 -14 -8 3 -5 -16
-19 -42 -32 -56 -28 -102 -72 -102 -97 0 -32 -37 -79 -79 -101 -52 -28 -57
-27 -85 3 -27 29 -25 60 5 76 24 12 24 28 2 46 -17 13 -16 14 4 10 15 -3 20
-1 16 9 -3 9 2 14 16 14 12 0 21 -4 21 -10 0 -5 5 -10 11 -10 6 0 8 8 4 20 -3
10 -2 28 4 38 8 15 5 24 -13 41 -13 12 -29 42 -36 67 -11 37 -17 44 -37 44
-20 0 -24 -4 -20 -19 2 -10 0 -26 -5 -35 -11 -19 -47 -21 -54 -3 -2 7 -14 13
-24 14 -13 1 -18 -2 -14 -9 5 -7 2 -9 -9 -5 -11 4 -20 -3 -28 -22 -7 -16 -18
-27 -24 -25 -19 8 -62 -34 -62 -60 0 -15 4 -23 12 -20 7 3 14 -6 17 -21 6 -31
-11 -42 -41 -26 -24 14 -64 -6 -56 -27 3 -7 0 -10 -5 -7 -5 3 -28 -4 -51 -16
-39 -19 -44 -20 -54 -5 -7 9 -17 16 -22 16 -6 0 -16 7 -23 15 -16 19 -47 19
-67 0 -11 -11 -13 -26 -9 -50 4 -19 11 -35 15 -35 5 0 11 -9 14 -20 3 -13 0
-20 -10 -20 -9 0 -12 -6 -8 -19 3 -10 -1 -24 -10 -31 -9 -7 -15 -29 -15 -51 0
-21 -5 -50 -12 -66 -6 -15 -10 -32 -9 -36 0 -4 -4 -17 -10 -29 -10 -19 -13
-20 -23 -6 -17 23 -73 31 -84 12 -8 -14 -10 -14 -25 0 -8 9 -22 13 -30 10 -9
-3 -17 3 -22 18 l-7 23 -7 -25 c-7 -24 -8 -24 -18 -5 -14 27 -24 107 -12 99
20 -12 7 13 -21 39 -46 44 -70 157 -32 157 26 1 52 24 52 47 0 16 10 23 40 31
22 5 40 7 40 3 0 -4 11 -8 26 -9 15 -1 23 2 19 8 -4 6 -10 8 -15 5 -5 -3 -12
-1 -15 5 -4 6 -1 9 7 8 8 -2 12 5 11 19 -1 11 4 24 12 27 8 3 15 1 15 -4 0 -6
5 -10 10 -10 6 0 10 9 10 20 0 11 -7 20 -15 20 -8 0 -16 8 -17 18 -1 9 -2 24
-4 32 -1 8 -2 25 -3 37 -1 23 -77 107 -124 136 -15 10 -80 31 -144 47 -64 17
-123 36 -131 42 -13 11 -14 11 -8 0 4 -7 18 -17 30 -22 18 -7 16 -9 -14 -9
-82 -1 -215 19 -226 34 -6 8 -17 15 -24 15 -9 0 -10 3 -2 13 6 7 9 22 6 33 -6
24 50 94 75 94 14 0 20 -11 25 -40 3 -22 11 -40 17 -40 6 0 8 16 4 45 -7 42
-6 45 26 64 19 12 41 21 50 21 9 0 22 7 29 15 6 8 35 30 63 50 29 19 62 42 74
51 20 14 25 14 69 -5 25 -12 53 -21 61 -21 25 0 115 -42 207 -97 48 -29 92
-50 97 -47 5 3 9 -5 9 -18 0 -16 3 -19 9 -10 6 10 10 10 21 -2 7 -9 16 -13 21
-10 5 3 9 -1 9 -9 0 -8 6 -20 14 -26 8 -6 16 -28 18 -48 3 -28 1 -37 -14 -41
-10 -2 -15 -8 -12 -13 3 -5 2 -9 -3 -10 -4 0 -19 -2 -33 -3 -28 -2 -105 -55
-128 -87 -11 -16 -4 -13 28 10 24 17 50 31 59 31 9 0 25 6 36 14 11 7 22 13
25 12 15 -3 182 101 196 122 21 32 11 86 -22 119 l-24 24 196 -2 c212 -2 218
-4 195 -55 -6 -14 -26 -31 -44 -39 -30 -13 -30 -14 -7 -15 l25 -1 -25 -15
c-24 -14 -23 -15 28 -11 64 5 98 32 110 91 l9 41 7 -37 c24 -114 -97 -218
-278 -239 -176 -20 -201 -24 -198 -34 5 -16 180 -35 277 -29 128 8 278 55 327
102 35 33 45 54 78 155 18 57 0 90 -67 126 -30 17 -71 35 -91 41 -21 6 -43 13
-49 15 -9 3 -10 11 -3 30 10 25 9 25 -15 9 -30 -19 -94 -13 -111 11 -15 21 -6
63 18 79 15 10 16 15 6 20 -7 3 2 5 20 3 17 -2 32 0 32 5 0 4 -13 8 -30 8 -16
0 -30 5 -30 11 0 5 -4 8 -8 5 -5 -3 -6 11 -3 31 6 35 9 37 71 56 36 11 94 22
130 23 l65 4 38 -47 38 -46 -46 -20 c-28 -12 -44 -25 -41 -33 3 -7 -1 -15 -9
-18 -10 -3 -12 0 -8 12 4 11 -4 7 -23 -11 l-29 -27 30 -24 30 -24 3 26 c2 15
6 34 9 42 3 8 5 18 5 23 -1 4 6 7 15 7 10 1 34 9 53 19 33 18 36 18 60 2 14
-10 34 -18 45 -18 11 -1 49 -8 85 -16 36 -8 97 -19 135 -23 68 -7 69 -7 40
-20 -37 -16 -23 -18 28 -3 35 9 42 8 84 -20 50 -34 83 -40 83 -16 0 8 8 15 19
15 25 0 62 39 89 94 12 25 31 65 43 89 11 23 49 74 85 112 65 70 134 177 134
208 0 10 7 17 16 17 11 0 14 -5 9 -17 -14 -38 -17 -110 -5 -153 9 -33 27 -59
69 -100 46 -43 60 -65 70 -103 6 -27 9 -58 5 -69 -4 -14 -2 -18 5 -14 10 7 12
1 15 -46 1 -10 4 -18 9 -18 38 -1 37 -9 37 225 0 195 -2 224 -15 219 -19 -8
-19 13 0 50 13 24 15 87 14 385 l-1 356 -22 -47 c-13 -26 -25 -46 -27 -44 -2
2 -4 -38 -5 -90 -1 -81 -4 -97 -20 -109 -31 -23 -63 -27 -80 -10 -14 14 -14
18 4 48 10 17 36 77 57 132 21 55 51 125 67 155 35 68 37 91 6 64 -23 -20 -17
-3 10 29 27 30 5 30 -41 -1 -25 -17 -54 -33 -66 -37 -11 -3 -20 -9 -19 -13 1
-4 -4 -19 -9 -33 -6 -14 -13 -36 -15 -50 -3 -26 -12 -38 -46 -57 -27 -15 -42
-8 -42 21 0 16 3 18 12 9 17 -17 33 -15 18 2 -9 12 -4 23 31 61 23 25 35 43
26 39 -29 -11 -18 2 26 32 23 16 63 44 90 64 l47 34 0 173 0 173 -2000 0
-2000 0 0 -2000z m1410 1556 l75 -1 -3 -65 c-2 -36 -6 -74 -8 -85 -4 -16 -3
-17 5 -5 8 11 11 4 11 -32 0 -47 1 -47 25 -38 14 5 25 6 25 2 0 -4 7 2 15 12
8 11 15 16 16 10 1 -12 19 52 26 94 3 21 1 32 -7 32 -8 0 -11 -9 -7 -26 4 -20
1 -24 -12 -18 -39 16 -61 16 -61 0 0 -10 -4 -15 -9 -12 -5 3 -7 15 -4 26 3 11
9 17 14 14 5 -3 9 2 9 10 0 8 9 15 20 15 11 1 29 1 40 2 16 0 20 7 20 35 0 19
1 34 3 34 37 7 114 10 133 6 22 -6 24 -11 25 -74 l2 -67 11 70 11 70 440 1
c487 2 559 -1 551 -22 -6 -16 6 -25 42 -29 14 -1 28 -7 30 -13 2 -6 14 -8 28
-6 16 3 27 -1 30 -11 7 -18 84 -21 84 -4 0 8 5 8 15 -1 13 -10 15 -9 15 9 0
15 -7 21 -22 22 -17 1 -19 2 -5 6 9 2 17 13 17 24 0 10 6 19 13 20 6 0 96 3
198 5 155 4 189 3 201 -10 20 -20 52 -24 71 -8 12 10 21 11 37 2 11 -6 18 -15
15 -21 -4 -5 1 -9 11 -9 11 0 15 -6 11 -20 -4 -15 0 -20 13 -20 10 0 21 -6 23
-12 3 -8 6 -6 6 5 1 20 5 21 33 6 19 -10 20 -9 14 14 -4 19 -1 26 13 30 23 6
46 -7 37 -22 -4 -6 7 -17 26 -25 18 -8 27 -15 21 -15 -8 -1 -13 -16 -13 -40 0
-30 -5 -41 -18 -45 -21 -7 -91 -8 -139 -3 -18 2 -42 4 -53 5 -28 3 -60 38 -60
66 0 13 12 35 26 50 36 36 14 33 -25 -3 -23 -21 -31 -38 -31 -63 0 -38 5 -47
40 -72 l25 -18 -51 5 c-66 7 -149 45 -198 91 -41 38 -63 41 -30 4 l19 -22 -25
17 c-34 24 -48 21 -17 -3 14 -11 28 -20 32 -20 3 0 29 -15 58 -33 60 -38 226
-97 277 -98 l35 -2 -35 -7 c-32 -7 -17 -15 18 -11 16 2 15 -2 -7 -28 -17 -20
-22 -20 -70 -10 -44 9 -53 15 -67 46 -10 19 -22 37 -28 39 -25 9 -121 15 -297
19 -178 5 -190 4 -263 -20 -42 -14 -102 -27 -134 -31 -31 -3 -95 -14 -142 -24
-117 -25 -186 -38 -245 -45 -79 -9 -186 -36 -232 -58 -25 -11 -61 -41 -85 -71
-23 -28 -33 -44 -23 -35 37 31 100 57 183 77 45 10 82 16 82 13 0 -4 -18 -24
-40 -45 -46 -43 -66 -82 -79 -149 -11 -58 10 -104 72 -159 22 -20 39 -39 37
-41 -24 -19 -142 -51 -213 -58 -57 -6 -109 -18 -150 -36 -56 -24 -76 -27 -212
-31 -200 -5 -403 10 -484 37 -35 12 -66 19 -69 17 -2 -3 9 -16 24 -30 22 -19
25 -25 13 -26 -10 0 -44 -13 -77 -30 -43 -21 -63 -38 -72 -60 -10 -24 -15 -28
-22 -18 -7 9 -8 8 -4 -5 3 -10 6 -30 6 -43 0 -14 4 -23 9 -20 5 4 12 0 14 -6
3 -7 6 -2 6 12 2 33 10 44 51 72 61 41 200 89 200 68 0 -4 12 -6 28 -4 17 2
20 1 7 -3 -37 -11 63 -32 189 -39 118 -7 120 -8 76 -19 -119 -32 -165 -54
-210 -103 -51 -54 -77 -68 -146 -77 -27 -3 -60 -8 -72 -11 -15 -3 -21 -1 -17
6 3 5 1 10 -4 10 -6 0 -11 -8 -11 -19 0 -25 -14 -35 -96 -64 -63 -23 -120 -52
-275 -141 -25 -14 -56 -40 -69 -56 -24 -31 -60 -41 -60 -16 0 19 27 46 45 46
8 0 19 9 26 21 10 19 8 19 -27 -5 -43 -29 -57 -26 -48 12 5 22 4 25 -6 15 -7
-7 -14 -20 -15 -30 -1 -10 -5 -28 -9 -41 -6 -19 -10 -21 -22 -11 -8 6 -14 18
-14 25 0 8 -6 11 -16 7 -13 -5 -13 -7 -2 -14 10 -7 8 -12 -10 -25 -13 -9 -21
-22 -18 -30 3 -8 -1 -14 -9 -14 -8 0 -31 -11 -51 -25 -20 -14 -45 -25 -54 -25
-9 0 -34 -11 -54 -25 -20 -13 -36 -20 -36 -14 0 6 -7 8 -16 5 -19 -7 -95 67
-113 112 -25 60 -11 166 25 200 13 13 24 26 24 30 0 4 14 16 32 27 50 29 149
24 199 -11 22 -15 47 -40 57 -56 22 -37 29 -35 37 10 5 32 12 41 41 53 32 12
34 14 18 26 -10 7 -23 13 -28 12 -6 0 -5 -3 2 -6 10 -4 10 -8 1 -19 -14 -18
-30 -9 -22 13 5 12 3 14 -7 8 -7 -4 -2 6 10 23 13 17 29 33 37 36 8 3 11 10 8
16 -9 15 -25 12 -25 -5 0 -17 -9 -19 -30 -5 -13 9 -13 11 0 20 13 8 12 11 -4
23 -24 17 -12 40 16 31 13 -4 18 -2 14 4 -3 6 -1 22 6 37 9 19 9 28 0 37 -17
17 -15 31 4 24 8 -3 12 -2 9 4 -3 6 -1 10 4 10 6 0 11 11 11 25 0 14 -4 25 -9
25 -15 0 20 78 48 106 21 21 23 27 11 35 -8 5 -21 9 -27 9 -20 0 -15 28 6 40
26 14 31 13 25 -5 -11 -27 4 -16 24 19 14 24 17 36 9 39 -6 2 17 10 51 17 43
10 57 16 45 21 -15 5 -12 9 17 22 29 14 31 15 8 11 -27 -6 -35 3 -28 31 2 6 4
19 5 30 1 12 10 21 24 23 14 2 21 9 17 17 -6 17 10 30 19 15 11 -18 23 -10 23
16 0 15 7 31 16 36 19 11 21 56 2 81 -16 21 -79 23 -96 2 -13 -16 -50 -21 -50
-7 0 4 -10 8 -22 9 -11 1 -24 7 -28 14 -4 6 -12 9 -16 6 -5 -3 -18 1 -28 9
-15 11 -20 30 -24 95 -4 77 -3 83 19 100 17 13 41 19 80 19 48 0 62 -5 105
-35 27 -19 50 -31 52 -25 2 5 16 10 32 10 40 0 130 22 130 32 0 4 -4 8 -10 8
-5 0 -7 7 -3 16 4 11 16 14 41 12 31 -2 37 1 43 22 l7 25 1 -27 c1 -25 5 -28
37 -28 27 0 35 4 31 14 -3 7 -1 18 5 24 8 8 7 13 -5 17 -9 3 -24 7 -33 10 -13
4 -14 8 -4 20 10 12 9 16 -6 22 -22 9 140 23 171 14 11 -2 54 -5 95 -5z m1540
-6 c0 -5 -4 -10 -10 -10 -5 0 -10 5 -10 10 0 6 5 10 10 10 6 0 10 -4 10 -10z
m1010 -24 c0 -2 -7 -7 -16 -10 -8 -3 -12 -2 -9 4 6 10 25 14 25 6z m-2401
-126 c0 -10 -3 -8 -9 5 -12 27 -12 43 0 25 5 -8 9 -22 9 -30z m1866 -120 c27
-30 12 -34 -15 -5 -13 14 -19 25 -13 25 5 0 18 -9 28 -20z m265 -30 c-11 -11
-26 -20 -34 -20 -7 0 -26 -7 -42 -15 -30 -15 -40 -14 -29 5 9 15 84 49 108 50
15 0 15 -2 -3 -20z m-861 -146 c2 -2 -2 -15 -9 -29 -7 -14 -14 -44 -14 -67 -1
-39 2 -44 39 -65 l40 -22 -70 5 c-46 4 -96 0 -145 -10 -108 -23 -117 -22 -125
15 -5 20 -10 27 -15 19 -5 -8 -9 -7 -13 5 -7 16 27 90 41 90 4 0 14 5 22 10 8
6 38 15 65 21 28 7 68 19 90 28 35 13 81 14 94 0z m297 -138 c114 -67 204
-139 204 -163 0 -8 -4 -12 -9 -9 -5 4 -11 1 -13 -4 -2 -6 -32 -1 -77 15 -75
25 -109 43 -145 77 -11 10 -23 18 -26 18 -3 0 -13 15 -22 33 -16 33 -33 97
-26 97 3 0 54 -29 114 -64z m-2466 33 c0 -5 -4 -9 -10 -9 -5 0 -10 7 -10 16 0
8 5 12 10 9 6 -3 10 -10 10 -16z m-230 -44 c5 -14 16 -25 25 -25 17 0 20 -16
5 -25 -5 -3 -10 -19 -10 -35 0 -16 -5 -32 -10 -35 -13 -8 -49 34 -50 58 0 9
-7 17 -16 17 -9 0 -14 7 -12 18 2 9 12 17 23 17 24 0 23 17 -2 26 -14 6 -12 8
10 8 20 1 30 -5 37 -24z m1741 -36 c-5 -13 -10 -19 -10 -12 -1 15 10 45 15 40
3 -2 0 -15 -5 -28z m-1651 -4 c0 -8 -4 -15 -8 -15 -5 0 -9 7 -9 15 0 8 4 15 9
15 4 0 8 -7 8 -15z m2536 -26 c4 -7 -2 -9 -17 -7 -13 2 -25 11 -27 21 -3 16
-1 17 17 8 11 -6 23 -16 27 -22z m897 -54 c-3 -9 -8 -14 -10 -11 -3 3 -2 9 2
15 9 16 15 13 8 -4z m-26 -72 c-14 -47 -33 -73 -23 -31 9 41 26 81 31 76 2 -2
-1 -22 -8 -45z m-672 6 c12 -19 -5 -23 -22 -6 -16 16 -16 17 -1 17 9 0 20 -5
23 -11z m-250 -26 c59 -28 47 -40 -60 -58 -73 -13 -92 -12 -180 8 l-50 11 85
27 c100 32 156 35 205 12z m270 -3 c-3 -5 -2 -10 4 -10 5 0 12 6 14 13 4 9 6
9 6 0 1 -15 -16 -26 -29 -18 -10 6 -5 25 6 25 3 0 2 -4 -1 -10z m119 -21 c23
3 28 -1 12 -11 -18 -10 -19 -11 -1 -24 22 -17 14 -87 -10 -77 -19 7 -19 33 0
33 12 0 11 5 -3 29 -9 16 -19 28 -23 25 -12 -7 -18 23 -6 35 8 8 13 8 18 0 3
-6 9 -10 13 -10z m-158 -95 c-1 -9 -10 -20 -19 -26 -22 -12 -22 -27 1 -22 15
4 17 -1 13 -46 -2 -41 1 -54 15 -65 11 -8 25 -12 32 -10 18 6 42 -5 42 -20 0
-35 -144 -134 -195 -135 -62 0 -90 77 -36 99 52 22 96 102 88 160 -4 35 -2 44
20 61 31 24 42 25 39 4z m684 -64 c-5 -75 -5 -75 -22 -50 -10 13 -18 29 -18
35 1 13 40 99 43 94 2 -2 0 -38 -3 -79z m-779 41 c14 23 16 7 10 -65 -7 -67
-23 -96 -56 -96 -19 0 -7 142 13 158 12 9 18 10 21 1 2 -8 6 -7 12 2z m831
-58 c20 -58 20 -255 0 -275 -9 -9 -12 -4 -12 25 0 20 4 37 10 37 10 0 4 79 -7
110 -4 8 -5 19 -4 24 1 4 -3 14 -9 21 -11 14 -21 85 -13 98 10 16 20 5 35 -40z
m-913 18 c21 -21 21 -83 1 -121 -23 -43 -43 -10 -53 93 -4 41 -2 47 14 47 11
0 27 -8 38 -19z m-648 -63 c-44 -30 -71 -57 -87 -88 -41 -76 -29 -122 43 -171
59 -40 95 -77 88 -90 -7 -11 -80 -10 -115 1 -14 4 -20 9 -15 9 19 3 -71 31
-120 37 -68 9 -121 37 -129 68 -7 28 20 106 36 106 6 0 8 7 4 15 -3 8 -2 14 2
13 14 -4 62 34 55 45 -3 5 -1 7 4 4 6 -4 16 0 23 8 7 8 19 15 28 15 8 0 23 6
31 14 27 23 124 55 170 55 l45 1 -63 -42z m-544 3 c-20 -15 -34 -31 -30 -35 3
-3 -1 -14 -10 -24 -10 -10 -14 -22 -10 -25 3 -4 1 -7 -5 -7 -7 0 -12 -5 -12
-12 0 -6 -6 -19 -14 -27 -9 -10 -16 -42 -17 -84 -1 -37 -4 -67 -6 -67 -2 0
-16 6 -31 14 -63 33 -75 132 -23 198 27 34 95 79 133 88 58 14 62 11 25 -19z
m-268 -20 c-42 -33 -160 -91 -185 -91 -88 0 74 103 170 108 l39 2 -24 -19z
m-1071 -143 c-6 -18 -28 -21 -28 -4 0 9 7 16 16 16 9 0 14 -5 12 -12z m2918
-46 c-27 -53 -73 -79 -102 -58 -23 17 -13 30 36 46 22 7 45 19 51 27 20 23 30
14 15 -15z m-2254 -76 c-3 -6 -17 -19 -30 -30 -13 -10 -28 -30 -33 -43 -5 -15
-14 -21 -21 -17 -7 5 -8 3 -4 -5 5 -8 -4 -23 -24 -41 -31 -28 -58 -32 -44 -7
4 7 -10 -4 -31 -23 l-38 -35 7 30 6 30 -15 -25 c-15 -24 -15 -22 -10 35 4 54
8 64 46 99 35 33 46 38 73 33 18 -3 38 -2 44 2 19 11 82 8 74 -3z m-350 -157
c3 -28 10 -54 16 -58 13 -8 34 -62 27 -69 -3 -3 -5 0 -5 6 0 7 -10 8 -32 1
-71 -20 -118 -7 -118 33 0 10 -6 17 -12 16 -20 -4 -9 34 15 58 22 22 87 64 98
64 4 0 9 -23 11 -51z m-49 -139 c82 1 87 0 87 -20 0 -12 -6 -33 -14 -48 -22
-44 -27 -112 -12 -182 15 -72 13 -83 -10 -54 -15 18 -15 18 -9 -3 4 -14 2 -23
-4 -23 -6 0 -11 7 -11 16 0 35 -25 5 -31 -37 -3 -24 -7 -35 -8 -24 -2 19 -3
19 -13 -2 -6 -13 -17 -23 -25 -23 -13 0 -16 -10 -14 -47 1 -11 -3 -24 -8 -28
-17 -10 -13 -36 7 -52 15 -13 16 -14 0 -9 -15 4 -17 -5 -15 -89 2 -74 -1 -96
-12 -100 -10 -4 -11 -9 -4 -16 7 -7 7 -21 0 -45 -10 -31 -27 -47 -27 -24 0 6
-11 10 -23 10 -19 0 -27 -8 -37 -40 -7 -22 -17 -40 -23 -40 -5 0 -7 -7 -3 -15
3 -9 0 -15 -9 -15 -8 0 -12 6 -9 14 3 8 1 17 -5 21 -6 3 -10 21 -10 38 l2 32
6 -32 6 -33 22 41 22 41 -23 -6 c-19 -5 -25 -1 -30 19 -4 14 -11 25 -16 25 -6
0 -10 7 -10 16 0 9 -5 12 -12 8 -7 -4 -8 -3 -4 5 5 8 12 9 19 2 18 -14 81 2
85 21 2 9 -2 35 -8 57 -10 38 -13 41 -43 37 -29 -3 -32 -7 -35 -39 -2 -19 -9
-38 -17 -41 -17 -6 -30 10 -15 19 5 3 10 19 10 35 0 16 7 35 15 44 28 28 18
44 -32 52 -27 5 -51 7 -55 6 -5 -1 -9 10 -9 25 -1 18 -3 22 -6 10 -4 -14 -8
-16 -19 -6 -7 6 -11 16 -7 22 3 6 1 7 -5 3 -7 -4 -12 -19 -12 -33 0 -15 -3
-23 -6 -20 -10 10 -44 -12 -44 -27 0 -20 -58 -66 -74 -60 -8 3 -17 12 -20 21
-8 20 3 60 17 60 61 4 81 12 89 34 5 13 7 39 3 57 -4 23 -2 32 7 32 8 0 6 5
-4 11 -25 14 -22 24 7 37 15 7 32 26 39 43 7 18 15 26 18 19 2 -7 18 -14 36
-15 28 -2 32 0 36 29 8 49 15 118 15 154 1 17 6 32 11 32 6 0 10 -17 10 -37 0
-28 7 -43 26 -60 36 -30 47 -20 39 33 -5 34 -3 45 8 50 9 3 18 16 21 29 3 12
14 25 24 27 12 3 22 18 25 38 6 26 10 31 24 25 10 -4 57 -6 106 -5z m295 -68
c24 -24 77 -43 100 -36 13 5 14 4 4 -4 -11 -7 -6 -12 19 -21 47 -16 84 -13 39
4 -32 12 -28 12 50 7 47 -2 93 -9 104 -14 13 -7 16 -7 11 1 -5 8 2 10 22 5 37
-9 41 -14 12 -15 -22 0 -23 -1 -4 -9 13 -6 15 -9 5 -9 -9 -1 -6 -7 10 -18 35
-24 40 -33 40 -76 0 -49 -31 -81 -90 -92 l-45 -9 38 -4 c29 -2 49 4 82 25 46
29 55 48 33 73 -11 12 -10 12 4 2 26 -20 30 8 4 36 l-21 23 25 -9 c14 -5 45
-8 69 -7 32 2 40 0 27 -7 -9 -5 -24 -7 -32 -4 -23 9 -16 -23 11 -48 14 -13 24
-33 24 -47 -1 -21 -2 -20 -9 6 -7 29 -8 29 -9 4 -2 -47 -22 -89 -42 -89 -10 0
-19 -5 -19 -10 0 -6 -23 -21 -52 -34 l-51 -24 -36 21 c-20 12 -38 24 -41 28
-10 13 -67 37 -150 63 -148 48 -224 78 -244 97 -14 13 -20 35 -23 76 -3 53 -2
55 9 28 12 -34 27 -47 45 -40 6 2 14 -1 17 -8 3 -7 2 -1 -2 13 -11 40 -8 106
7 124 18 21 37 20 59 -2z m-690 -34 c1 -20 -2 -39 -8 -43 -5 -3 -10 1 -10 10
0 20 -30 32 -40 15 -10 -16 -30 -4 -30 19 0 26 19 40 54 38 28 -2 31 -5 34
-39z m1109 -44 c-3 -3 -12 -4 -19 -1 -8 3 -5 6 6 6 11 1 17 -2 13 -5z m26 -31
c-7 -2 -19 -2 -25 0 -7 3 -2 5 12 5 14 0 19 -2 13 -5z m2237 -3 c0 -5 -7 -10
-15 -10 -8 0 -15 5 -15 10 0 6 7 10 15 10 8 0 15 -4 15 -10z m-2192 -9 c11 -7
10 -10 -3 -15 -20 -7 -38 1 -30 15 7 11 16 11 33 0z m1402 -71 c0 -5 -2 -10
-4 -10 -3 0 -8 5 -11 10 -3 6 -1 10 4 10 6 0 11 -4 11 -10z m-1980 -156 c38
-35 39 -38 33 -88 -12 -97 -11 -97 -78 -101 -33 -2 -67 -6 -76 -10 -21 -8 -34
22 -18 41 6 8 8 14 4 14 -4 0 -3 6 3 13 6 7 11 33 10 58 0 25 3 68 7 96 l7 52
34 -20 c20 -11 53 -36 74 -55z m1340 72 c0 -2 -7 -7 -16 -10 -8 -3 -12 -2 -9
4 6 10 25 14 25 6z m-710 -16 c0 -5 -5 -10 -11 -10 -5 0 -7 5 -4 10 3 6 8 10
11 10 2 0 4 -4 4 -10z m2250 -43 c0 -15 -23 -1 -39 23 l-16 24 27 -19 c15 -11
28 -24 28 -28z m-2866 7 c3 -8 2 -12 -4 -9 -6 3 -10 10 -10 16 0 14 7 11 14
-7z m1387 6 c28 -16 27 -86 -2 -95 -45 -14 -78 54 -43 89 18 19 20 19 45 6z
m-1641 -30 c0 -5 -5 -10 -11 -10 -5 0 -7 5 -4 10 3 6 8 10 11 10 2 0 4 -4 4
-10z m2260 -35 c0 -8 -7 -15 -15 -15 -26 0 -18 20 13 29 1 1 2 -6 2 -14z
m-699 -35 c39 -21 12 -74 -32 -63 -22 6 -24 25 -7 53 15 23 14 23 39 10z
m-1181 -80 c0 -6 -54 -40 -64 -40 -3 0 -6 28 -6 63 l1 62 34 -39 c19 -22 35
-42 35 -46z m-976 64 c9 -3 16 -16 17 -28 0 -20 1 -20 8 -1 5 13 10 -7 14 -59
6 -86 -1 -178 -15 -187 -5 -3 -28 -4 -51 -3 -91 6 -102 8 -101 27 0 9 1 33 2
52 2 28 6 35 22 35 11 0 20 4 20 9 0 5 -8 8 -17 7 -15 -1 -18 8 -18 49 0 54
16 74 23 28 5 -43 12 -40 12 5 l0 42 32 -20 c18 -11 36 -28 40 -37 6 -16 7
-15 7 3 1 11 -10 31 -24 44 -34 32 -17 52 29 34z m351 -54 c3 -6 -1 -7 -9 -4
-18 7 -21 14 -7 14 6 0 13 -4 16 -10z m1661 -17 c-1 -14 -7 -28 -13 -31 -16
-5 -17 12 -3 39 14 25 17 24 16 -8z m1583 -27 c-3 -3 -11 5 -18 17 -13 21 -12
21 5 5 10 -10 16 -20 13 -22z m-3542 2 c-3 -8 -6 -5 -6 6 -1 11 2 17 5 13 3
-3 4 -12 1 -19z m3244 -25 c-8 -15 -10 -15 -11 -2 0 17 10 32 18 25 2 -3 -1
-13 -7 -23z m-2458 4 c13 12 7 -73 -5 -89 -14 -17 -68 -31 -68 -17 0 4 -3 15
-7 25 -5 12 -3 15 6 9 10 -6 12 0 6 25 -5 23 -4 30 4 26 6 -4 11 -1 11 8 0 18
21 26 36 15 6 -5 14 -6 17 -2z m1809 -18 c5 -3 8 -18 6 -32 -3 -26 -3 -26 -28
-7 -22 17 -23 20 -11 47 10 20 15 24 19 13 3 -8 9 -18 14 -21z m1058 12 c0
-16 -28 -33 -35 -21 -4 6 -1 9 7 8 7 -2 12 3 11 10 -2 6 2 12 7 12 6 0 10 -4
10 -9z m44 -7 c3 -8 2 -12 -3 -9 -5 3 -12 1 -16 -5 -3 -5 -10 -10 -16 -10 -5
0 -4 9 3 20 15 24 24 25 32 4z m-2708 -28 c4 -11 2 -22 -5 -24 -6 -2 -11 -17
-11 -32 0 -31 -20 -53 -21 -23 0 16 -2 15 -16 -4 -18 -26 -38 -29 -59 -9 -22
22 -17 40 21 79 40 41 81 47 91 13z m-294 -8 c-7 -7 -12 -8 -12 -2 0 14 12 26
19 19 2 -3 -1 -11 -7 -17z m1170 -11 c19 -18 41 -36 51 -40 17 -6 23 -41 11
-72 -11 -28 -61 -47 -87 -34 -48 25 -57 40 -57 99 0 86 27 102 82 47z m1832
-31 c-10 -8 -21 -12 -24 -9 -3 2 4 11 14 19 11 7 22 12 25 9 2 -3 -4 -12 -15
-19z m-1934 0 c0 -24 -12 -46 -21 -40 -15 9 -10 54 6 54 8 0 15 -6 15 -14z
m1985 -6 c-3 -5 -12 -10 -18 -10 -7 0 -6 4 3 10 19 12 23 12 15 0z m-3511 -15
c-7 -17 11 -21 21 -5 23 37 37 -59 15 -101 -12 -21 -40 -26 -41 -6 0 6 -4 3
-9 -8 -8 -18 -9 -18 -10 5 -2 14 -1 30 0 35 1 6 3 28 5 50 3 47 2 45 15 45 5
0 7 -7 4 -15z m1813 -7 c-3 -8 -6 -5 -6 6 -1 11 2 17 5 13 3 -3 4 -12 1 -19z
m1573 2 c0 -5 -4 -10 -10 -10 -5 0 -10 5 -10 10 0 6 5 10 10 10 6 0 10 -4 10
-10z m90 0 c0 -5 -5 -10 -11 -10 -5 0 -7 5 -4 10 3 6 8 10 11 10 2 0 4 -4 4
-10z m-1336 -43 c-3 -8 -12 -18 -20 -21 -15 -6 -11 7 11 30 13 15 17 11 9 -9z
m1204 9 c-10 -7 -15 -15 -12 -18 3 -4 0 -9 -7 -14 -8 -4 -10 -3 -5 4 4 7 2 12
-5 12 -8 0 -8 4 1 15 7 8 20 15 29 15 14 -1 14 -2 -1 -14z m61 -46 c0 -10 -3
-8 -9 5 -12 27 -12 43 0 25 5 -8 9 -22 9 -30z m-2759 21 c0 -5 -7 -11 -15 -15
-15 -5 -20 5 -8 17 9 10 23 9 23 -2z m2720 -5 c0 -2 -8 -10 -17 -17 -16 -13
-17 -12 -4 4 13 16 21 21 21 13z m-1665 -36 c3 -5 2 -10 -4 -10 -5 0 -13 5
-16 10 -3 6 -2 10 4 10 5 0 13 -4 16 -10z m930 -7 c11 -1 32 -3 48 -4 32 -2
34 -10 8 -33 -21 -19 -67 -13 -55 6 4 7 2 8 -4 4 -18 -11 -15 -39 3 -32 11 4
15 -1 15 -19 0 -18 -4 -23 -15 -19 -8 4 -15 2 -15 -4 0 -6 6 -13 13 -15 9 -4
9 -6 0 -6 -7 -1 -18 8 -25 19 -16 24 -27 25 -43 3 -15 -20 -106 -21 -131 -1
-6 4 -19 6 -28 2 -18 -7 -22 11 -4 22 6 4 26 7 43 6 21 -1 39 6 50 18 10 11
27 20 37 20 28 0 58 18 58 36 0 9 5 12 12 8 7 -5 22 -9 33 -11z m748 4 c3 -8
-1 -14 -9 -14 -15 0 -18 9 -7 20 9 9 10 9 16 -6z m-1463 -33 c0 -8 -6 -11 -15
-8 -8 4 -15 12 -15 20 0 8 6 11 15 8 8 -4 15 -12 15 -20z m-2008 -35 c-1 -18
-8 -37 -15 -42 -9 -7 -9 -10 2 -14 11 -4 11 -7 0 -14 -18 -11 -49 8 -49 31 0
11 5 20 10 20 6 0 10 11 10 23 0 29 6 36 28 32 13 -2 16 -11 14 -36z m1716
-10 c12 -18 11 -24 -7 -40 -18 -17 -44 -29 -28 -13 3 4 0 13 -8 21 -12 11 -12
18 -2 33 15 26 29 25 45 -1z m405 -4 c-3 -9 -8 -14 -10 -11 -3 3 -2 9 2 15 9
16 15 13 8 -4z m-1946 -27 c-3 -8 -6 -5 -6 6 -1 11 2 17 5 13 3 -3 4 -12 1
-19z m2490 -30 c-3 -8 -6 -5 -6 6 -1 11 2 17 5 13 3 -3 4 -12 1 -19z m-1007 2
c0 -5 -4 -10 -10 -10 -5 0 -10 5 -10 10 0 6 5 10 10 10 6 0 10 -4 10 -10z
m373 -39 c-4 -17 -8 -19 -14 -9 -12 18 -11 31 1 23 6 -3 10 -1 10 6 0 7 2 10
5 8 2 -3 2 -15 -2 -28z m553 5 c15 -38 -52 -80 -77 -49 -20 23 8 63 43 63 16
0 31 -6 34 -14z m864 -47 c0 -6 -4 -7 -10 -4 -15 9 -12 -2 6 -30 9 -14 12 -25
8 -25 -5 0 -4 -4 3 -8 17 -11 -9 -96 -30 -100 -22 -4 -32 17 -13 31 19 15 24
70 8 90 -9 11 -10 22 -2 41 9 25 30 28 30 5z m-1460 -9 c0 -5 -7 -10 -15 -10
-8 0 -15 5 -15 10 0 6 7 10 15 10 8 0 15 -4 15 -10z m1496 -121 c-9 -22 -15
-27 -15 -16 -1 21 18 61 25 54 3 -3 -2 -20 -10 -38z m-436 -34 c-7 -8 -17 -15
-22 -15 -6 0 -5 7 2 15 7 8 17 15 22 15 6 0 5 -7 -2 -15z m-50 -25 c-8 -5 -19
-10 -25 -10 -5 0 -3 5 5 10 8 5 20 10 25 10 6 0 3 -5 -5 -10z m-50 -20 c-8 -5
-19 -10 -25 -10 -5 0 -3 5 5 10 8 5 20 10 25 10 6 0 3 -5 -5 -10z m266 -57
c-11 -11 -19 6 -11 24 8 17 8 17 12 0 3 -10 2 -21 -1 -24z m157 -77 c21 -61
21 -76 2 -76 -8 0 -15 -7 -15 -15 0 -8 -4 -15 -10 -15 -5 0 -10 7 -10 15 0 8
-6 15 -13 15 -9 0 -11 12 -9 40 4 39 16 52 25 28 2 -7 3 2 2 20 -1 18 -5 36
-9 40 -4 4 -6 2 -4 -4 2 -7 -1 -14 -7 -15 -12 -5 -19 36 -10 59 5 13 9 10 24
-14 10 -16 25 -51 34 -78z m15 29 c-3 -3 -9 2 -12 12 -6 14 -5 15 5 6 7 -7 10
-15 7 -18z m-352 -42 c16 -17 16 -18 1 -21 -9 -2 -17 -10 -17 -18 0 -8 -7 -14
-15 -14 -8 0 -15 5 -15 10 0 6 -13 18 -30 29 -16 10 -27 21 -23 24 14 14 82 7
99 -10z m229 -22 c3 -30 3 -31 -36 -31 -26 0 -42 5 -45 15 -4 8 -10 12 -15 9
-5 -3 -9 4 -9 16 0 18 4 20 39 14 25 -4 41 -2 46 6 10 16 15 8 20 -29z m35
-12 c0 -6 -4 -7 -10 -4 -5 3 -10 11 -10 16 0 6 5 7 10 4 6 -3 10 -11 10 -16z
m-159 -7 c-7 -2 -18 1 -23 6 -8 8 -4 9 13 5 13 -4 18 -8 10 -11z m154 -33 c11
-16 1 -19 -13 -3 -7 8 -8 14 -3 14 5 0 13 -5 16 -11z m125 -51 c0 -9 -3 -9
-10 2 -8 13 -10 12 -10 -2 0 -10 -4 -18 -9 -18 -15 0 -26 23 -14 27 6 2 8 14
6 26 l-6 22 22 -22 c11 -12 21 -28 21 -35z m-341 18 c8 -10 9 -16 1 -21 -5 -3
-10 -18 -10 -33 0 -15 -4 -34 -10 -42 -10 -17 -14 -10 -24 47 -9 55 15 83 43
49z m468 -68 c-3 -7 -5 -2 -5 12 0 14 2 19 5 13 2 -7 2 -19 0 -25z m-145 -36
c-12 -34 1 -62 28 -62 11 0 20 -6 20 -14 0 -16 -41 -29 -53 -17 -12 12 -47
-19 -47 -40 0 -16 -28 -35 -37 -25 -7 7 27 54 43 60 19 7 18 33 -2 53 -12 13
-20 13 -40 4 -36 -16 -42 -41 -14 -63 19 -15 21 -21 10 -31 -10 -9 -14 -9 -17
1 -3 7 -10 18 -17 25 -6 6 -11 22 -10 34 1 12 -3 21 -9 20 -5 -1 -11 5 -12 14
-2 14 4 16 34 13 45 -6 82 13 100 50 18 38 38 20 23 -22z m-435 -19 c-3 -10
-5 -2 -5 17 0 19 2 27 5 18 2 -10 2 -26 0 -35z m-187 -23 c0 -5 -7 -10 -16
-10 -8 0 -12 5 -9 10 3 6 10 10 16 10 5 0 9 -4 9 -10z m250 -12 c-1 -31 -21
-42 -150 -83 -66 -21 -72 -17 -15 10 27 13 53 21 57 19 3 -2 16 7 27 22 18 22
23 24 43 13 22 -12 22 -11 8 6 -9 11 -10 16 -2 11 6 -4 12 -2 12 3 0 6 5 11
10 11 6 0 10 -6 10 -12z m-493 -85 c-9 -2 -14 -9 -11 -15 4 -7 2 -8 -5 -4 -15
10 -4 26 17 25 15 -1 15 -2 -1 -6z"/>
<path d="M1323 3543 c-15 -5 -18 -43 -4 -43 5 0 11 10 14 22 7 26 6 27 -10 21z"/>
<path d="M3557 3424 c-6 -10 9 -42 16 -34 3 3 1 14 -3 24 -3 11 -9 15 -13 10z"/>
<path d="M1235 3300 c-3 -5 -3 -14 0 -20 3 -5 1 -10 -5 -10 -7 0 -9 -7 -6 -17
4 -9 4 -49 0 -89 l-7 -74 -33 -6 c-46 -8 -52 -22 -16 -35 23 -8 29 -15 25 -30
-5 -18 4 -24 35 -20 6 1 12 -6 13 -16 0 -14 2 -13 9 5 5 12 14 22 19 22 20 0
2 83 -21 101 -4 3 -1 43 7 90 8 46 15 90 15 97 0 14 -26 16 -35 2z"/>
<path d="M1094 3248 c-5 -7 -9 -23 -9 -34 -1 -16 5 -21 21 -20 12 0 20 5 17
10 -3 4 -1 11 4 15 6 3 3 13 -7 24 -14 15 -20 16 -26 5z"/>
<path d="M1160 3240 c0 -5 7 -10 16 -10 8 0 12 5 9 10 -3 6 -10 10 -16 10 -5
0 -9 -4 -9 -10z"/>
<path d="M943 3219 c-22 -22 -16 -46 12 -46 13 0 22 3 20 7 -3 5 1 11 7 13 8
4 7 6 -4 6 -9 1 -18 8 -20 17 -2 12 -5 13 -15 3z"/>
<path d="M916 3152 c-8 -13 55 -25 68 -12 7 7 3 10 -11 10 -12 0 -28 3 -36 6
-8 3 -18 1 -21 -4z"/>
<path d="M1050 2695 c19 -14 41 -25 49 -24 9 0 2 7 -16 15 -17 7 -34 18 -38
24 -3 5 -11 10 -18 10 -6 0 4 -11 23 -25z"/>
<path d="M545 2140 c-11 -5 -15 -9 -8 -9 6 -1 18 -4 27 -7 11 -4 16 -1 16 10
0 18 -6 19 -35 6z"/>
<path d="M557 1673 c-4 -3 -7 -11 -7 -17 0 -6 5 -5 12 2 6 6 9 14 7 17 -3 3
-9 2 -12 -2z"/>
<path d="M427 1574 c-7 -37 3 -64 23 -64 12 0 20 11 25 36 7 41 8 39 -21 48
-18 5 -22 2 -27 -20z"/>
<path d="M245 1359 c-4 -6 -5 -12 -2 -15 2 -3 7 2 10 11 7 17 1 20 -8 4z"/>
<path d="M1308 1783 c12 -2 30 -2 40 0 9 3 -1 5 -23 4 -22 0 -30 -2 -17 -4z"/>
<path d="M986 1693 c-6 -14 -5 -15 5 -6 7 7 10 15 7 18 -3 3 -9 -2 -12 -12z"/>
<path d="M1338 1573 c7 -3 16 -2 19 1 4 3 -2 6 -13 5 -11 0 -14 -3 -6 -6z"/>
<path d="M980 1249 c0 -5 5 -7 10 -4 6 3 10 8 10 11 0 2 -4 4 -10 4 -5 0 -10
-5 -10 -11z"/>
<path d="M1139 1244 c-11 -13 -9 -14 17 -8 40 9 54 24 22 24 -14 0 -31 -7 -39
-16z"/>
<path d="M1098 1213 c-8 -10 -4 -13 18 -12 16 0 38 4 49 8 16 7 13 9 -18 13
-24 2 -42 -1 -49 -9z"/>
<path d="M3925 2190 c-3 -5 1 -10 10 -10 9 0 13 5 10 10 -3 6 -8 10 -10 10 -2
0 -7 -4 -10 -10z"/>
<path d="M3985 2150 c-3 -5 -1 -10 4 -10 6 0 11 5 11 10 0 6 -2 10 -4 10 -3 0
-8 -4 -11 -10z"/>
<path d="M3070 1768 l-25 -10 35 -16 c19 -10 38 -21 41 -26 4 -4 9 -2 13 5 4
10 7 11 12 2 3 -7 12 -9 21 -6 11 4 14 2 9 -5 -5 -8 -2 -10 8 -6 24 9 19 21
-14 41 -16 9 -30 21 -30 25 0 11 -40 9 -70 -4z"/>
<path d="M2103 1713 c9 -2 25 -2 35 0 9 3 1 5 -18 5 -19 0 -27 -2 -17 -5z"/>
<path d="M3940 1669 c0 -5 5 -7 10 -4 6 3 10 8 10 11 0 2 -4 4 -10 4 -5 0 -10
-5 -10 -11z"/>
<path d="M1942 1625 c-6 -14 -7 -25 -2 -25 9 0 25 39 18 46 -3 2 -10 -7 -16
-21z"/>
<path d="M1975 1640 c-3 -5 -1 -10 4 -10 6 0 11 5 11 10 0 6 -2 10 -4 10 -3 0
-8 -4 -11 -10z"/>
<path d="M2231 1641 c-8 -6 -9 -11 -3 -15 6 -3 14 -1 17 5 9 14 2 20 -14 10z"/>
<path d="M2260 1636 c0 -9 5 -16 10 -16 6 0 10 4 10 9 0 6 -4 13 -10 16 -5 3
-10 -1 -10 -9z"/>
<path d="M1965 1610 c-3 -5 -1 -10 4 -10 6 0 11 5 11 10 0 6 -2 10 -4 10 -3 0
-8 -4 -11 -10z"/>
<path d="M2258 1593 c7 -3 16 -2 19 1 4 3 -2 6 -13 5 -11 0 -14 -3 -6 -6z"/>
<path d="M2233 1573 c-7 -2 -13 -9 -13 -14 0 -14 26 -10 40 6 10 12 10 15 -1
14 -8 0 -20 -3 -26 -6z"/>
<path d="M2118 1563 c6 -2 18 -2 25 0 6 3 1 5 -13 5 -14 0 -19 -2 -12 -5z"/>
<path d="M2668 1543 c7 -3 16 -2 19 1 4 3 -2 6 -13 5 -11 0 -14 -3 -6 -6z"/>
<path d="M1720 1311 c-29 -8 -37 -38 -17 -64 12 -18 29 -16 75 8 1 1 -5 16
-14 33 -8 18 -16 32 -17 31 -1 -1 -13 -4 -27 -8z"/>
<path d="M1910 1298 c0 -16 4 -28 9 -28 18 0 20 17 6 36 -14 18 -14 18 -15 -8z"/>
<path d="M1830 1271 c0 -25 6 -27 13 -6 4 8 2 17 -3 20 -6 4 -10 -3 -10 -14z"/>
<path d="M1830 1215 c0 -14 5 -25 11 -25 5 0 9 -8 8 -17 -5 -32 12 -86 23 -75
13 13 1 102 -13 102 -5 0 -9 9 -9 20 0 11 -4 20 -10 20 -5 0 -10 -11 -10 -25z"/>
<path d="M3800 1236 c0 -3 9 -10 20 -16 11 -6 20 -8 20 -6 0 3 -9 10 -20 16
-11 6 -20 8 -20 6z"/>
<path d="M1730 1215 c0 -8 7 -15 15 -15 8 0 15 7 15 15 0 8 -7 15 -15 15 -8 0
-15 -7 -15 -15z"/>
<path d="M1777 1120 c-3 -11 -1 -20 4 -20 5 0 9 2 9 4 0 2 3 11 6 20 3 9 2 16
-4 16 -5 0 -12 -9 -15 -20z"/>
<path d="M1751 1114 c0 -11 3 -14 6 -6 3 7 2 16 -1 19 -3 4 -6 -2 -5 -13z"/>
<path d="M2386 965 c-3 -8 -1 -15 4 -15 6 0 10 7 10 15 0 8 -2 15 -4 15 -2 0
-6 -7 -10 -15z"/>
<path d="M3987 703 c-4 -7 -22 -19 -40 -28 -18 -8 -38 -25 -46 -36 -11 -19
-10 -25 12 -47 31 -30 73 -25 83 11 8 33 1 115 -9 100z"/>
<path d="M3844 445 c-10 -26 11 -40 43 -29 39 13 36 38 -5 42 -22 2 -34 -2
-38 -13z"/>
<path d="M1490 35 c0 -8 5 -15 10 -15 6 0 10 7 10 15 0 8 -4 15 -10 15 -5 0
-10 -7 -10 -15z"/>
</g>
</svg>
